<?xml version="1.0" standalone="no"?>
<!DOCTYPE svg PUBLIC "-//W3C//DTD SVG 20010904//EN"
 "http://www.w3.org/TR/2001/REC-SVG-20010904/DTD/svg10.dtd">
<svg version="1.0" xmlns="http://www.w3.org/2000/svg"
 width="970.000000pt" height="647.000000pt" viewBox="0 0 970.000000 647.000000"
 preserveAspectRatio="xMidYMid meet">

<g transform="translate(0.000000,647.000000) scale(0.100000,-0.100000)"
fill="#000000" stroke="none">
<path d="M1054 4627 c-91 -35 -142 -96 -217 -265 -50 -113 -152 -295 -230
-412 -138 -207 -363 -453 -518 -567 -85 -61 -90 -71 -69 -142 28 -98 103 -151
213 -151 78 0 140 19 218 66 31 19 61 34 66 34 6 0 -7 -75 -28 -166 -52 -231
-62 -323 -57 -527 6 -194 20 -253 89 -388 91 -175 232 -267 424 -276 169 -8
306 38 464 157 242 183 504 580 766 1160 31 69 59 128 63 132 4 4 7 -73 8
-170 2 -259 31 -421 100 -553 93 -176 220 -250 434 -251 325 -3 614 216 662
500 15 92 1 172 -39 214 -15 15 -31 28 -36 28 -5 0 -41 -30 -79 -66 -78 -73
-219 -181 -258 -196 -114 -46 -189 -13 -219 98 -18 67 -31 274 -41 647 -10
375 -18 446 -65 542 -46 95 -109 143 -201 152 -71 8 -131 -16 -181 -70 -26
-28 -117 -195 -280 -512 -256 -501 -309 -597 -435 -795 -175 -275 -329 -460
-393 -473 -49 -9 -96 20 -125 78 -20 41 -25 67 -28 165 -2 64 1 157 7 206 30
223 109 579 219 979 75 271 85 331 85 485 0 116 -3 143 -22 192 -48 124 -181
189 -297 145z"/>
<path d="M5830 3729 c0 -169 -1 -181 -17 -173 -10 4 -66 9 -124 12 -159 6
-257 -27 -347 -119 -163 -168 -165 -506 -5 -667 113 -113 322 -140 481 -61
l66 32 21 -27 c19 -24 26 -26 103 -26 l82 0 0 605 0 605 -130 0 -130 0 0 -181z
m-30 -394 l30 -16 0 -188 0 -189 -27 -17 c-34 -23 -148 -32 -196 -16 -130 43
-171 274 -68 383 20 21 54 45 76 54 48 17 141 12 185 -11z"/>
<path d="M4100 3465 c0 -415 7 -479 60 -585 34 -67 103 -133 168 -161 105 -46
280 -60 424 -35 146 26 239 88 296 193 61 117 64 140 69 571 l5 392 -135 0
-136 0 -4 -367 c-4 -409 -6 -422 -68 -484 -77 -77 -255 -78 -339 -2 -67 60
-70 79 -70 490 l0 363 -135 0 -135 0 0 -375z"/>
<path d="M6465 3550 c-157 -52 -248 -183 -262 -375 -18 -260 105 -443 327
-485 121 -23 288 -6 361 36 34 20 43 45 64 181 l6 43 -44 -19 c-73 -31 -149
-44 -240 -39 -72 4 -92 9 -126 31 -40 27 -72 75 -85 130 l-6 27 281 0 282 0
-7 73 c-19 200 -87 322 -215 384 -49 25 -69 28 -166 30 -88 2 -122 -1 -170
-17z m255 -195 c44 -23 100 -120 84 -146 -6 -10 -327 -13 -336 -3 -4 3 0 25 8
48 17 49 68 103 110 116 36 11 97 4 134 -15z"/>
<path d="M7487 3551 c-27 -11 -64 -32 -84 -47 l-36 -27 -24 29 c-12 16 -23 32
-23 37 0 4 -43 7 -95 7 l-95 0 0 -425 0 -425 130 0 130 0 0 293 0 294 40 18
c55 25 143 24 178 -2 54 -40 57 -56 60 -340 l3 -263 130 0 130 0 -2 293 -1
292 38 19 c50 24 143 25 178 3 57 -37 61 -59 64 -344 l4 -263 124 0 125 0 -3
323 c-4 362 -7 379 -81 463 -56 63 -126 87 -242 82 -96 -5 -157 -27 -223 -82
-16 -15 -34 -26 -39 -26 -5 0 -22 14 -39 31 -52 55 -99 72 -204 76 -76 3 -105
-1 -143 -16z"/>
<path d="M8490 3546 c0 -5 180 -440 292 -706 22 -52 40 -104 40 -115 0 -11
-22 -76 -50 -145 -27 -69 -53 -135 -57 -148 l-7 -23 128 3 128 3 61 155 c187
471 288 728 330 835 26 66 49 126 52 133 4 10 -22 12 -123 10 l-128 -3 -87
-265 c-48 -146 -91 -271 -96 -279 -6 -10 -39 73 -104 265 l-95 279 -142 3
c-78 1 -142 0 -142 -2z"/>
<path d="M9503 3543 c13 -3 17 -15 17 -49 0 -24 5 -44 10 -44 6 0 10 20 10 44
0 34 4 46 18 49 9 3 -3 5 -28 5 -25 0 -37 -2 -27 -5z"/>
<path d="M9602 3500 c1 -30 3 -43 5 -27 5 34 16 34 32 0 l12 -27 19 29 18 28
5 -29 c2 -16 4 -4 5 26 l1 55 -21 -40 c-20 -39 -21 -39 -37 -18 -9 11 -21 29
-28 39 -10 16 -12 10 -11 -36z"/>
</g>
</svg>
